<?xml version="1.0" encoding="UTF-8"?>
<svg width="20px" height="19px" viewBox="0 0 20 19" version="1.1" xmlns="http://www.w3.org/2000/svg" xmlns:xlink="http://www.w3.org/1999/xlink">
    <g id="Page-1" stroke="none" stroke-width="1" fill="none" fill-rule="evenodd">
        <g id="Home" transform="translate(-115.000000, -707.000000)" fill="#3578E5" fill-rule="nonzero" stroke="#3578E5" stroke-width="0.2">
            <g id="Image_post" transform="translate(0.000000, 359.000000)">
                <g id="Group" transform="translate(116.000000, 349.000000)">
                    <g id="chat-comment-oval-speech-bubble-with-text-lines">
                        <path d="M11.8125,9.5625 L6.1875,9.5625 C5.877,9.5625 5.625,9.8145 5.625,10.125 C5.625,10.4355 5.877,10.6875 6.1875,10.6875 L11.8125,10.6875 C12.123,10.6875 12.375,10.4355 12.375,10.125 C12.375,9.8145 12.123,9.5625 11.8125,9.5625 Z M12.9375,6.1875 L5.0625,6.1875 C4.752,6.1875 4.5,6.4395 4.5,6.75 C4.5,7.0605 4.752,7.3125 5.0625,7.3125 L12.9375,7.3125 C13.248,7.3125 13.5,7.0605 13.5,6.75 C13.5,6.4395 13.248,6.1875 12.9375,6.1875 Z M9,0 C4.02976471,0 0,3.52573529 0,7.875 C0,10.3607059 1.31905882,12.5735588 3.375,14.0169412 L3.375,16.2235047 C3.375,16.7757894 3.82271525,17.2235047 4.375,17.2235047 C4.55793527,17.2235047 4.73736565,17.1733238 4.8937606,17.0784242 L7.31755882,15.6076765 L7.31755882,15.6076765 C7.86320588,15.6977059 8.42455882,15.75 9,15.75 C13.9708235,15.75 18,12.2242647 18,7.875 C18,3.52573529 13.9708235,0 9,0 Z M9,14.625 C8.343,14.625 7.7085,14.5485 7.09873529,14.4185588 L4.45047059,16.0104118 L4.48591176,13.4015588 C2.45588235,12.1803824 1.125,10.1621471 1.125,7.875 C1.125,4.14732353 4.65073529,1.125 9,1.125 C13.3492647,1.125 16.875,4.14732353 16.875,7.875 C16.875,11.6026765 13.3492647,14.625 9,14.625 Z" id="Shape"></path>
                    </g>
                </g>
            </g>
        </g>
    </g>
</svg>
