<svg width="18px" height="18px" viewBox="0 0 18 18" version="1.1" xmlns="http://www.w3.org/2000/svg" xmlns:xlink="http://www.w3.org/1999/xlink">
    <g id="Page-1" stroke="none" stroke-width="1" fill="none" fill-rule="evenodd">
        <g id="Profile" transform="translate(-38.000000, -1231.000000)" fill="#FFFFFF" fill-rule="nonzero">
            <g id="Footer" transform="translate(0.000000, 1194.000000)">
                <g id="user-(6)" transform="translate(38.000000, 37.000000)">
                    <path d="M6.27272727,6.84545455 C8.16005455,6.84545455 9.69550909,5.31005455 9.69550909,3.42272727 C9.69550909,1.5354 8.16005455,0 6.27272727,0 C4.3854,0 2.85,1.5354 2.85,3.42272727 C2.85,5.31005455 4.3854,6.84545455 6.27272727,6.84545455 Z M6.27272727,1.63636364 C7.25776364,1.63636364 8.05914545,2.43769091 8.05914545,3.42272727 C8.05914545,4.40776364 7.25776364,5.20909091 6.27272727,5.20909091 C5.28769091,5.20909091 4.48630909,4.40776364 4.48630909,3.42272727 C4.48630909,2.43769091 5.28769091,1.63636364 6.27272727,1.63636364 Z" id="XMLID_447_"></path>
                    <path d="M17.7603273,9.80329091 L15.2876182,7.33058182 C15.1341818,7.17714545 14.9260909,7.09090909 14.7091091,7.09090909 C14.4921273,7.09090909 14.2839818,7.17714545 14.1305455,7.33058182 L10.9203273,10.5408 C9.74050909,9.23716364 8.06410909,8.48187273 6.27272727,8.48187273 C2.81394545,8.48187273 8.52651283e-14,11.2958182 8.52651283e-14,14.7546 C8.52651283e-14,15.2064545 0.366327273,15.5727818 0.818181818,15.5727818 L7.09090909,15.5727818 L7.09090909,17.1818182 C7.09090909,17.6336727 7.45723636,18 7.90909091,18 L10.3818,18 C10.5987818,18 10.8068727,17.9137636 10.9603091,17.7603273 L17.7603273,10.9603636 C18.0798545,10.6408364 18.0798545,10.1228182 17.7603273,9.80329091 Z M6.27272727,10.1181818 C7.62376364,10.1181818 8.88610909,10.6999091 9.76090909,11.7002182 L7.52476364,13.9363636 L1.70863636,13.9363636 C2.09623636,11.7687818 3.9954,10.1181818 6.27272727,10.1181818 Z M10.0429091,16.3636364 L8.72727273,16.3636364 L8.72727273,15.048 L11.4123818,12.3628364 C11.4172909,12.3580909 11.4220909,12.3532364 11.4268364,12.3483818 L14.7090545,9.06616364 L16.0246909,10.3818 L10.0429091,16.3636364 Z" id="XMLID_450_"></path>
                </g>
            </g>
        </g>
    </g>
</svg>
