<svg xmlns="http://www.w3.org/2000/svg"
        width="1.588cm" height="1.658cm">
    <path fill="rgb(38, 38, 39)"
          d="M22.500,0.881 C21.761,0.881 21.023,1.161 20.460,1.720 L1.512,20.530 C0.545,21.490 0.002,21.802 0.002,23.160 L0.002,45.201 C0.002,46.900 1.389,46.411 3.101,46.411 L14.308,46.411 C16.020,46.411 17.407,46.900 17.407,45.201 L17.407,33.123 C17.407,30.880 20.240,29.062 22.500,29.062 C24.759,29.062 27.592,30.880 27.592,33.123 L27.592,45.201 C27.592,46.900 28.979,46.411 30.691,46.411 L41.899,46.411 C43.610,46.411 44.997,46.900 44.997,45.201 L44.997,23.160 C44.997,21.802 44.454,21.490 43.487,20.530 L24.539,1.720 C23.976,1.161 23.238,0.881 22.500,0.881 "/>
</svg>
