<?xml version="1.0" encoding="UTF-8"?>
<svg width="24px" height="24px" viewBox="0 0 24 24" version="1.1" xmlns="http://www.w3.org/2000/svg" xmlns:xlink="http://www.w3.org/1999/xlink">
    <g id="Page-1" stroke="none" stroke-width="1" fill="none" fill-rule="evenodd">
        <g id="Home" transform="translate(-217.000000, -287.000000)" fill="#FFFFFF" fill-rule="nonzero">
            <g id="Top-header-Block" transform="translate(20.000000, 61.000000)">
                <g id="Write-Post" transform="translate(0.000000, 126.000000)">
                    <g id="videocamera" transform="translate(197.000000, 100.000000)">
                        <path d="M20.4852905,3.51470948 C18.218811,1.24822997 15.2054443,0 12,0 C8.79473878,0 5.78118895,1.24822997 3.51470948,3.51470948 C1.24822997,5.78118895 -2.84217094e-14,8.79473878 -2.84217094e-14,12 C-2.84217094e-14,15.2052612 1.24822997,18.218811 3.51470948,20.4852905 C5.78118895,22.75177 8.79473878,24 12,24 C15.2054443,24 18.218811,22.75177 20.4852905,20.4852905 C22.75177,18.218811 24,15.2052612 24,12 C24,8.79473878 22.75177,5.78118895 20.4852905,3.51470948 Z M12,22.59375 C6.15856931,22.59375 1.40625,17.8414307 1.40625,12 C1.40625,6.15856931 6.15856931,1.40625 12,1.40625 C17.8414307,1.40625 22.59375,6.15856931 22.59375,12 C22.59375,17.8414307 17.8414307,22.59375 12,22.59375 Z" id="Shape"></path>
                        <path d="M18.645813,8.26391602 C18.4385376,8.13574219 18.1798096,8.12402344 17.961731,8.2331543 L15.4645386,9.48156741 L15.4645386,9.36401367 C15.4645386,7.93817137 14.3045654,6.77819822 12.8785401,6.77819822 L7.6067505,6.77819822 C6.1809082,6.77819822 5.02075195,7.93817137 5.02075195,9.36401367 L5.02075195,14.6359863 C5.02075195,16.0618286 6.1809082,17.2219849 7.6067505,17.2219849 L12.8785401,17.2219849 C14.3045654,17.2219849 15.4645386,16.0618286 15.4645386,14.6359863 L15.4645386,14.5184326 L17.961731,15.7668457 C18.0609741,15.8164673 18.1686401,15.8411865 18.276123,15.8411865 C18.4046631,15.8411865 18.5328369,15.8058472 18.645813,15.736084 C18.8530884,15.6080932 18.979248,15.3817749 18.979248,15.1380615 L18.979248,8.8619385 C18.979248,8.61822511 18.8530884,8.39190675 18.645813,8.26391602 Z M14.0582886,14.6359863 C14.0582886,15.286377 13.5291138,15.8155518 12.8785401,15.8155518 L7.6067505,15.8155518 C6.95617678,15.8155518 6.42700195,15.286377 6.42700195,14.6359863 L6.42700195,9.36401367 C6.42700195,8.71362305 6.95617678,8.18444822 7.6067505,8.18444822 L12.8785401,8.18444822 C13.5291138,8.18444822 14.0582886,8.71362305 14.0582886,9.36401367 L14.0582886,14.6359863 Z M17.572998,14.0002441 L15.4647217,12.946106 L15.4647217,11.0537109 L17.572998,9.99957277 L17.572998,14.0002441 Z" id="Shape"></path>
                    </g>
                </g>
            </g>
        </g>
    </g>
</svg>
