<?xml version="1.0" encoding="UTF-8"?>
<svg width="19px" height="24px" viewBox="0 0 19 24" version="1.1" xmlns="http://www.w3.org/2000/svg" xmlns:xlink="http://www.w3.org/1999/xlink">
    <g id="Page-1" stroke="none" stroke-width="1" fill="none" fill-rule="evenodd">
        <g id="Home" transform="translate(-354.000000, -287.000000)" fill="#FFFFFF">
            <g id="Top-header-Block" transform="translate(20.000000, 61.000000)">
                <g id="Write-Post" transform="translate(0.000000, 126.000000)">
                    <g id="point" transform="translate(334.000000, 100.000000)">
                        <path d="M17.5582665,4.373625 C15.8255533,1.635 12.8130888,0 9.5,0 C6.18686294,0 3.1744467,1.635 1.4417335,4.37357812 C-0.28456599,7.10207813 -0.427837563,10.4375156 1.05864721,13.2959062 C1.07094416,13.3195781 1.08463959,13.3425937 1.09963706,13.3647656 L7.62117005,23.0145937 C8.03815736,23.6316094 8.74048223,24 9.5,24 C10.2594695,24 10.9618909,23.6316094 11.3788782,23.0146406 L17.9003629,13.3648125 C17.9153604,13.3426406 17.9290558,13.319625 17.9413528,13.2959531 C19.4278376,10.4375156 19.284566,7.10207813 17.5582665,4.373625 Z M16.6682563,12.6266719 L10.1697259,22.2425156 C10.0188832,22.4657344 9.77477665,22.59375 9.5,22.59375 C9.22522335,22.59375 8.98116497,22.4657344 8.83032234,22.2425156 L2.33174365,12.6266719 C1.09303046,10.215375 1.22000254,7.40835938 2.67403299,5.11026563 C4.14146954,2.7909375 6.69325635,1.40625 9.5,1.40625 C12.3067437,1.40625 14.8584822,2.7909375 16.325967,5.11026563 C17.7799492,7.40835937 17.9069695,10.215375 16.6682563,12.6266719 Z" id="Shape" fill-rule="nonzero"></path>
                        <path d="M9.5,2.965125 C6.02111929,2.965125 3.19084264,5.71003125 3.19084264,9.08395312 C3.19084264,12.457875 6.02111929,15.2027813 9.5,15.2027813 C12.9788807,15.2027813 15.8091574,12.457875 15.8091574,9.08395313 C15.8091574,5.71003125 12.9788807,2.965125 9.5,2.965125 Z M9.5,13.7965313 C6.81882995,13.7965313 4.63754315,11.6825156 4.63754315,9.084 C4.63754315,6.48548438 6.81882995,4.37142187 9.5,4.37142187 C12.1811701,4.37142187 14.3624569,6.48548437 14.3624569,9.084 C14.3624569,11.6825156 12.1811701,13.7965313 9.5,13.7965313 Z" id="Shape" fill-rule="nonzero"></path>
                        <path d="M11.5660812,7.5875625 C11.2836371,7.31292187 10.8256117,7.31292187 10.5431193,7.58751562 L9.11493655,8.97571875 C9.0972868,8.992875 9.07626142,9.00140625 9.05075127,8.99985937 C9.0258198,8.99873437 9.00508376,8.98865625 8.98917005,8.97 L8.50240355,8.398875 C8.24749492,8.09985937 7.79154315,8.05823437 7.48387817,8.30596875 C7.17626142,8.55370312 7.13343909,8.99695313 7.38829949,9.29601562 L7.87506599,9.8671875 C8.14950508,10.1892188 8.55337563,10.3851094 8.98314213,10.4046094 C9.00691624,10.4056875 9.03059391,10.40625 9.0543198,10.40625 C9.45905838,10.40625 9.85058376,10.2494531 10.1379467,9.970125 L11.5660812,8.58192187 C11.8485736,8.30732813 11.8485736,7.86215625 11.5660812,7.5875625 Z" id="Path"></path>
                    </g>
                </g>
            </g>
        </g>
    </g>
</svg>
