<?xml version="1.0" encoding="UTF-8"?>
<svg width="106px" height="30px" viewBox="0 0 106 30" version="1.1" xmlns="http://www.w3.org/2000/svg" xmlns:xlink="http://www.w3.org/1999/xlink">
    <g id="Page-1" stroke="none" stroke-width="1" fill="none" fill-rule="evenodd">
        <g id="Instagram-UI-2018---iPhone-X" transform="translate(-135.000000, -53.000000)" fill="#1D1D1B">
            <g id="Top-Section">
                <path d="M215.648845,61.9926361 C215.024899,62.0164007 213.559587,62.4239376 213.295648,66.4977896 C213.03171,70.571136 214.111733,71.6253723 215.024899,71.7452063 C215.936548,71.8650404 217.545459,70.4037729 217.641023,66.0659825 C217.737598,61.7292035 215.648845,61.9926361 215.648845,61.9926361 M195.861564,74.5195921 C192.25289,77.6383112 191.940917,79.8661121 191.940917,79.8661121 C191.940917,79.8661121 191.584449,81.6929493 193.322295,81.78194 C195.410543,81.9937985 195.760944,79.4575639 195.817068,77.2373474 C195.844372,76.1891787 195.861564,74.5195921 195.861564,74.5195921 M193.723259,61.8662289 C193.089706,61.8904991 191.495458,62.4456796 191.135956,66.3890794 C190.867973,70.5160225 191.964176,71.5844163 192.890488,71.7057673 C193.816801,71.8271182 195.449982,70.3461312 195.546557,65.952216 C195.644649,61.5577953 193.723259,61.8662289 193.723259,61.8662289 M180.951579,61.8480263 C180.327633,61.8717908 178.86232,62.2793277 178.598888,66.3531797 C178.334949,70.4265262 179.414973,71.4807624 180.327633,71.6005965 C181.239787,71.7204305 182.848193,70.259163 182.943757,65.9218783 C183.040837,61.584088 180.951579,61.8480263 180.951579,61.8480263 M240.981359,68.7761534 C240.981359,73.4031635 238.178152,73.3293417 238.178152,73.3293417 C235.51096,73.4238943 234.828866,70.6050132 234.660492,67.7396142 C234.534085,65.5846238 234.660492,63.186426 234.660492,63.186426 C234.660492,63.186426 234.641784,63.0756932 234.568467,63.186426 C233.676538,64.8059553 233.070289,67.2633118 232.772979,69.1649821 C232.557076,70.5448433 232.534828,71.7002054 232.534828,71.7002054 C232.534828,71.7002054 232.571739,71.959593 232.351285,72.1077423 C230.904175,72.7736555 229.969772,71.8296464 229.640102,70.7749045 C229.200711,69.7757818 228.943851,63.7603148 228.943851,63.4458136 C228.943851,63.1308068 228.686992,63.3719918 228.686992,63.3719918 C226.690263,66.7217832 226.672061,71.6450918 226.672061,72.6442145 C226.672061,73.6438428 224.968091,73.3293417 224.968091,73.3293417 C223.520476,73.2181033 223.575589,72.5147735 223.575589,72.5147735 L223.509858,71.3199724 C223.007263,72.2478015 222.071849,73.4527151 220.634346,73.3596794 C218.458119,73.2191146 218.035919,70.9655266 218.004065,70.5852936 C218.004065,70.5852936 216.921007,73.391534 213.939819,73.3596794 C211.915281,73.3283304 211.102736,71.2350268 211.102736,71.2350268 C211.102736,71.2350268 210.289684,73.422883 208.298012,73.3440049 C206.305329,73.2646212 204.663552,70.9655266 204.79097,67.9853498 C204.918389,65.0046675 205.380533,63.5140735 205.380533,63.5140735 C205.380533,63.5140735 205.540312,63.2127187 205.269295,63.1970442 C204.998784,63.1813697 203.277117,63.2288988 203.277117,63.2288988 C203.277117,63.2288988 202.304793,67.1293201 198.193019,71.9803238 C198.193019,71.9803238 198.225885,73.4967048 198.224368,75.1834828 C198.222345,78.3724843 197.825932,82.6506104 193.50685,83 C189.769747,82.7471856 189.980594,79.8661121 189.980594,79.8661121 C189.891603,79.0196893 190.426053,77.4603298 192.653854,75.3660149 C194.881655,73.2722056 195.772573,72.4702782 195.772573,72.4702782 L195.684088,71.1333954 C194.257709,73.4946823 192.074909,73.3611963 192.074909,73.3611963 C192.074909,73.3611963 190.389142,73.7040127 188.971359,71.1955877 C188.554215,72.0546512 187.607172,73.5204694 186.057925,73.3500725 C183.880687,73.1104044 183.448374,70.937717 183.41652,70.5544503 C183.41652,70.5544503 182.328406,73.3819271 179.335083,73.3500725 C177.301949,73.3177122 176.485864,71.2097453 176.485864,71.2097453 C176.250241,70.7824889 176.068721,70.1342727 175.973662,69.7525228 C175.949392,69.8303897 175.921583,69.9153353 175.883155,70.0144386 C175.422021,71.1940708 174.280311,73.2509692 172.528813,73.2772619 C169.31099,73.2772619 169.174976,68.2856934 169.174976,68.2856934 C168.244619,70.4998424 166.422332,73.3359148 163.029562,73.3167009 C159.636793,73.2964758 159.229761,72.0733595 159.229761,71.8984119 C159.229761,71.7234643 159.171614,71.5293028 159.559431,70.9660322 C159.947249,70.4027616 160.276919,70.1696667 160.547936,70.1696667 C160.819459,70.1696667 161.304357,70.5777092 161.304357,70.5777092 C161.304357,70.5777092 162.041058,71.2957022 162.874334,71.2957022 C163.940706,71.2572744 164.173295,70.4027616 164.251162,69.5285292 C164.328523,68.6548025 163.708116,67.7224228 162.855121,66.9452712 C162.002125,66.1686252 161.342784,65.5861407 161.342784,65.5861407 C160.121691,67.6450616 159.190828,69.0431255 158.51278,70.2475335 C156.864429,72.9278723 155.229225,73.342488 154.596684,73.258048 C153.723968,73.1417533 152.890186,72.2478015 152.851758,69.6453295 C152.812825,67.0428576 153.045414,62.5948401 153.045414,62.3617452 C153.045414,62.1286503 152.832544,62.2454506 152.832544,62.2454506 C149.575283,65.7024354 148.605993,72.811072 148.605993,72.9470862 C148.605993,73.083606 148.315256,73.2383285 148.024519,73.2383285 C147.733783,73.2383285 148.1216,73.2191146 146.958148,73.1801811 C145.795201,73.1417533 145.872563,70.9276044 145.872563,70.9276044 L145.949924,60.3412521 C145.969138,59.9918626 146.299313,59.8366345 147.404113,60.1278767 C148.509417,60.419119 148.470484,60.7882281 148.470484,60.7882281 L148.431551,66.9260573 C151.281275,58.5159318 153.433232,59.8366345 154.732192,60.4772663 C156.031153,61.1184038 155.856711,62.0507834 155.856711,62.0507834 C155.856711,62.0507834 155.721202,66.6737485 155.662549,68.3054129 C155.604908,69.9370774 155.836991,70.5777092 156.205595,70.6363622 C157.116738,70.8497375 160.35428,64.5951081 160.35428,64.5951081 C158.919811,63.0413105 159.70303,61.1446965 160.819459,60.3220382 C161.577902,59.7628127 162.506237,59.7006203 162.506237,59.7006203 C162.506237,59.7006203 163.95992,59.6227535 163.921492,60.8463754 C163.95992,62.1867976 162.467303,63.8184621 162.467303,63.8184621 C165.355961,65.877383 166.713069,66.9649907 166.926444,68.5572161 C167.022008,69.3212214 166.848578,69.8005576 166.848578,69.8005576 C168.903959,68.0136651 169.058681,66.0133971 169.058681,66.0133971 L169.097615,59.3315112 L166.054235,59.2930834 C166.054235,59.2930834 165.821645,59.2733639 165.782712,58.7100933 C165.782712,57.6416994 166.344971,57.1947235 166.344971,57.1947235 L169.252843,57.2336569 C169.252843,57.2336569 169.349924,54.2231425 169.369138,53.7372331 C169.465713,53.0384539 169.911677,52.9408676 171.191424,53.2710432 C172.470665,53.6012189 172.470665,53.8924612 172.470665,53.8924612 L172.315437,57.4086045 C172.315437,57.4086045 175.514551,57.5638326 175.941302,57.602766 C176.367547,57.6416994 176.503056,57.7579941 176.406481,58.4764928 C176.3094,59.195497 175.883155,59.3704446 175.883155,59.3704446 L172.277009,59.4478059 L172.025206,67.1980856 C172.025206,68.401988 172.082848,71.2380605 173.207367,71.218341 C174.77785,71.2957022 175.708713,67.7805701 175.708713,67.7805701 L175.725904,67.7527605 C175.708207,67.2046588 175.719331,66.5473412 175.797703,65.8096287 C176.095013,62.9851856 177.354535,59.6753389 180.246732,59.6753389 C180.246732,59.6753389 182.007838,59.6116296 182.936172,61.3686901 L182.968027,60.7295751 C182.968027,60.7295751 182.903812,59.9630417 184.120861,60.1546751 C185.337404,60.3463084 185.753031,60.8256446 185.721176,61.2089113 C185.721176,61.2089113 185.497183,66.1291861 185.625612,69.0370579 C185.788425,70.7258585 186.078656,71.7244755 186.937719,71.6562156 C187.678466,71.5485167 188.20432,70.535742 188.522866,69.6731391 C187.447393,60.7265414 192.343398,59.6419674 192.343398,59.6419674 C192.343398,59.6419674 194.510523,59.4831999 195.498522,61.2908232 L195.530377,60.6881136 C195.530377,60.6881136 195.434813,59.8957931 196.583096,60.1177642 C196.583096,60.1177642 197.060916,60.1809678 197.571095,60.3710842 C198.080769,60.5612007 198.240042,60.6881136 198.240042,61.1639104 C198.240042,61.6392015 198.144478,69.9987641 198.144478,69.9987641 C198.144478,69.9987641 200.69487,66.5741396 201.332469,63.2445733 C201.332469,63.2445733 200.440034,62.57866 200.504248,61.6275721 C200.567452,60.6759785 201.045271,59.534774 202.448391,59.534774 C203.851006,59.534774 203.914715,60.7710367 203.691733,61.6275721 C203.691733,61.6275721 204.87086,61.4688046 205.890713,61.2149789 C206.911072,60.9616588 208.281832,60.8028913 208.377396,62.3885435 C208.441105,62.9593986 208.185763,63.4033407 208.185763,63.4033407 C208.185763,63.4033407 207.388891,66.9230235 207.51631,68.3499083 C207.644234,69.776793 208.026995,71.9327947 209.142412,71.6789689 C210.25783,71.4256489 210.640591,69.8405023 210.640591,69.8405023 C210.640591,69.8405023 210.192098,68.005575 210.417103,65.8763717 C210.713907,63.0731651 211.967867,59.7885997 214.847929,59.7885997 C214.847929,59.7885997 216.60145,59.7248905 217.526245,61.4688046 L217.557594,60.8347459 C217.557594,60.8347459 217.493885,60.0737744 218.705877,60.2638909 C219.916353,60.454513 220.331474,60.9298042 220.299114,61.3100371 C220.299114,61.3100371 220.076132,66.193401 220.204056,69.0795308 C220.365857,70.7556906 220.654571,71.7467232 221.510601,71.6789689 C222.335787,71.6546988 223.031533,70.2601743 223.461823,69.1230149 L223.456261,68.7023316 L223.484071,60.4565355 C223.552836,59.9847838 223.979081,59.9569742 223.979081,59.9569742 L224.968091,60.1096741 C226.356043,60.3179932 226.163398,60.8453641 226.163398,60.8453641 L226.163398,65.5092851 C227.19387,62.3445538 227.688881,61.1366064 228.156082,60.3316452 C228.554012,59.6455068 229.859545,60.0955165 229.859545,60.0955165 C229.859545,60.0955165 231.275306,60.4706931 231.30261,61.7752157 C231.261654,63.9271723 231.56402,67.4321918 231.56402,67.4321918 C231.569077,67.487811 231.617111,67.5050024 231.64391,67.4807322 C231.665146,67.4615183 231.667169,67.4043822 231.667169,67.4043822 C231.948298,65.1487717 233.231079,61.4465569 233.744292,60.4843451 C234.257,59.5221333 235.741021,60.2067548 235.741021,60.2067548 C237.518306,60.8175546 237.280155,61.8722964 237.280155,61.8722964 C236.748739,70.9230537 237.866179,71.5151452 238.526025,71.5707644 C239.185365,71.6263835 239.533743,70.7749045 239.680375,70.3673676 C239.827008,69.9608419 240.010046,69.072452 240.119767,68.7205343 C240.229488,68.3691222 240.578372,68.3504139 240.578372,68.3504139 C240.578372,68.3504139 240.981359,68.442944 240.981359,68.7761534 M137.795141,55.0286093 C139.798948,53.0627241 141.040267,53.0040712 141.040267,53.0040712 C141.040267,53.0040712 141.431118,52.9449126 142.379173,53.2776164 C143.327227,53.6103202 143.36616,54.1189829 143.36616,54.1189829 L143.36616,68.5066532 C143.488017,72.5339874 142.486872,74.0822231 141.284486,75.1582014 C140.601381,75.7133819 140.052268,75.78417 139.984514,75.78417 C139.818668,75.78417 139.691755,75.7644505 139.661923,75.5399512 C139.633102,75.3149464 139.837882,74.7279112 139.837882,74.7279112 C140.444131,73.1918106 140.395085,70.531697 140.395085,70.531697 L140.453738,55.0286093 C140.453738,55.0286093 140.502784,54.7449515 140.258565,54.8329309 C137.893233,56.8675816 137.599968,59.7334862 137.521596,61.1224488 C137.482662,63.2056398 138.386727,64.2816181 138.386727,64.2816181 C138.386727,64.2816181 138.621339,64.4869035 138.592012,64.7801682 C138.592012,65.1765813 138.225431,65.1472548 138.225431,65.1472548 C137.33603,65.0643317 135.918752,64.0566133 135.410595,62.8436096 C134.989406,61.9476351 135.000024,60.9803671 135.000024,60.9803671 C135.029351,59.762307 135.791839,56.9944944 137.795141,55.0286093" id="Instagram-Logo"></path>
            </g>
        </g>
    </g>
</svg>
