<?xml version="1.0" encoding="UTF-8"?>
<svg width="21px" height="18px" viewBox="0 0 21 18" version="1.1" xmlns="http://www.w3.org/2000/svg" xmlns:xlink="http://www.w3.org/1999/xlink">
    <g id="Page-1" stroke="none" stroke-width="1" fill="none" fill-rule="evenodd">
        <g id="Home" transform="translate(-44.000000, -291.000000)" fill="#FFFFFF" fill-rule="nonzero">
            <g id="Top-header-Block" transform="translate(20.000000, 61.000000)">
                <g id="Write-Post" transform="translate(0.000000, 126.000000)">
                    <g id="image" transform="translate(24.000000, 104.000000)">
                        <path d="M9.51145937,8.1252486 C10.6682281,8.1252486 11.6095047,7.1865767 11.6095047,6.0328125 C11.6095047,4.8788885 10.6682281,3.94021661 9.51145937,3.94021661 C8.35469053,3.94021661 7.41357422,4.8788885 7.41357422,6.0328125 C7.41357422,7.1865767 8.35469053,8.1252486 9.51145937,8.1252486 L9.51145937,8.1252486 Z M9.51145937,5.16748934 C9.98986816,5.16748934 10.3790359,5.55564633 10.3790359,6.0328125 C10.3790359,6.50981888 9.98986816,6.89797587 9.51145937,6.89797587 C9.03321074,6.89797587 8.64404297,6.50981888 8.64404297,6.0328125 C8.64404297,5.55564633 9.03321074,5.16748934 9.51145937,5.16748934 Z" id="Shape"></path>
                        <path d="M20.2332001,0.0204545455 L0.766799906,0.0204545455 C0.343986521,0.0204545455 0,0.363547595 0,0.785262764 L0,17.2195312 C0,17.6412465 0.343986521,17.9843395 0.766799906,17.9843395 L20.2332001,17.9843395 C20.6560135,17.9843395 21,17.6412465 21,17.2195312 L21,0.785262764 C21,0.363547595 20.6560135,0.0204545455 20.2332001,0.0204545455 Z M19.7695312,1.24772727 L19.7695312,10.9598011 L15.899643,7.09980468 C15.6473007,6.84859729 15.2369843,6.84875708 14.9848022,7.10028409 L9.51161958,12.5592507 L6.01551817,9.0723899 C5.89327241,8.95030184 5.73065186,8.88302557 5.55761719,8.88302557 C5.38474273,8.88302557 5.22228242,8.95014205 5.10003662,9.07207032 L1.23046875,12.9315874 L1.23046875,1.24772727 L19.7695312,1.24772727 Z M1.23046875,16.7570668 L1.23046875,14.6671875 L5.55761719,10.3512784 L9.05355835,13.8381392 C9.17596436,13.9602273 9.33858491,14.0276634 9.51161958,14.0276634 C9.68433379,14.0276634 9.84695435,13.9603871 9.96903994,13.8384588 L15.4423828,8.37933239 L19.7696915,12.6954013 L19.7696915,16.7570668 L1.23046875,16.7570668 Z" id="Shape"></path>
                    </g>
                </g>
            </g>
        </g>
    </g>
</svg>
