<?xml version="1.0" encoding="UTF-8"?>
<svg width="19px" height="20px" viewBox="0 0 19 20" version="1.1" xmlns="http://www.w3.org/2000/svg" xmlns:xlink="http://www.w3.org/1999/xlink">
    <g id="Page-1" stroke="none" stroke-width="1" fill="none" fill-rule="evenodd">
        <g id="Home" transform="translate(-324.000000, -707.000000)" fill="#3578E5" fill-rule="nonzero" stroke="#3578E5" stroke-width="0.4">
            <g id="Image_post" transform="translate(0.000000, 359.000000)">
                <g id="share-(1)" transform="translate(325.000000, 349.000000)">
                    <path d="M13.7718681,11.5543568 C12.7369231,11.5543568 11.8140659,12.0473029 11.2237363,12.8091286 L6.28065934,10.0493776 C6.39648352,9.71701245 6.46,9.35850622 6.46,8.98879668 C6.46,8.6153527 6.39648352,8.26058091 6.27692308,7.92448133 L11.2162637,5.16846473 C11.8028571,5.9340249 12.7294505,6.43070539 13.7681319,6.43070539 C15.5391209,6.43070539 16.9850549,4.98921162 16.9850549,3.2153527 C16.9850549,1.44149378 15.5428571,0 13.7681319,0 C11.9934066,0 10.5512088,1.44149378 10.5512088,3.2153527 C10.5512088,3.58879668 10.6147253,3.9473029 10.7342857,4.27966805 L5.79868132,7.03568465 C5.21208791,6.26639004 4.28549451,5.77344398 3.24681319,5.77344398 C1.47582418,5.77344398 0.0298901099,7.21493776 0.0298901099,8.98879668 C0.0298901099,10.7626556 1.47582418,12.2041494 3.25054945,12.2041494 C4.28923077,12.2041494 5.21582418,11.7074689 5.80615385,10.9381743 L10.7454945,13.6979253 C10.6259341,14.0340249 10.5586813,14.3962656 10.5586813,14.7697095 C10.5586813,16.539834 12.0008791,17.9850622 13.7756044,17.9850622 C15.5503297,17.9850622 16.9925275,16.5435685 16.9925275,14.7697095 C16.9925275,12.9958506 15.5465934,11.5543568 13.7718681,11.5543568 Z M13.7718681,1.0120332 C14.9898901,1.0120332 15.98,2.00165975 15.98,3.21908714 C15.98,4.43651452 14.9898901,5.42614108 13.7718681,5.42614108 C12.5538462,5.42614108 11.5637363,4.43651452 11.5637363,3.21908714 C11.5637363,2.00165975 12.5575824,1.0120332 13.7718681,1.0120332 Z M3.25054945,11.1958506 C2.03252747,11.1958506 1.04241758,10.2062241 1.04241758,8.98879668 C1.04241758,7.77136929 2.03252747,6.78174274 3.25054945,6.78174274 C4.46857143,6.78174274 5.45868132,7.77136929 5.45868132,8.98879668 C5.45868132,10.2062241 4.46483516,11.1958506 3.25054945,11.1958506 Z M13.7718681,16.973029 C12.5538462,16.973029 11.5637363,15.9834025 11.5637363,14.7659751 C11.5637363,13.5485477 12.5538462,12.5589212 13.7718681,12.5589212 C14.9898901,12.5589212 15.98,13.5485477 15.98,14.7659751 C15.98,15.9834025 14.9898901,16.973029 13.7718681,16.973029 Z" id="Shape"></path>
                </g>
            </g>
        </g>
    </g>
</svg>
