<?xml version="1.0" encoding="UTF-8"?>
<svg width="21px" height="20px" viewBox="0 0 21 20" version="1.1" xmlns="http://www.w3.org/2000/svg" xmlns:xlink="http://www.w3.org/1999/xlink">
    <g id="Page-1" stroke="none" stroke-width="1" fill="none" fill-rule="evenodd">
        <g id="Home" transform="translate(-23.000000, -707.000000)" fill="#3578E5" fill-rule="nonzero" stroke="#3578E5" stroke-width="0.5">
            <g id="Image_post" transform="translate(0.000000, 359.000000)">
                <g id="like-(2)" transform="translate(24.000000, 349.000000)">
                    <path d="M18.0558522,6.63301911 C17.5759754,6.23174522 16.975154,6.01391083 16.3665298,6.01391083 L15.7501027,6.01391083 L13.5301848,6.01391083 L12.2661191,6.01391083 L12.2661191,3.11327389 C12.2661191,1.89416561 11.9032854,1.01518471 11.1854209,0.499261146 C10.0501027,-0.318573248 8.48562628,0.14766879 8.41930185,0.170598726 C8.22422998,0.231745223 8.09158111,0.407541401 8.09158111,0.606267516 L8.09158111,3.8508535 C8.09158111,4.90945223 7.57659138,5.8075414 6.55831622,6.52219108 C5.79753593,7.05722293 5.0211499,7.29034395 4.93921971,7.31709554 L4.82607803,7.34384713 C4.65831622,7.06486624 4.35010267,6.8776051 3.99507187,6.8776051 L0.963655031,6.8776051 C0.433059548,6.8776051 0,7.30180892 0,7.82155414 L0,16.5502166 C0,17.0699618 0.433059548,17.4941656 0.963655031,17.4941656 L4.00287474,17.4941656 C4.29938398,17.4941656 4.56858316,17.3604076 4.74414784,17.1540382 C5.23182752,17.6623185 5.92238193,17.9795159 6.67145791,17.9795159 L9.24250513,17.9795159 L9.50780287,17.9795159 L14.7786448,17.9795159 C16.5694045,17.9795159 17.7125257,17.0623185 17.9154004,15.4572229 L18.9648871,9.07887898 C19.1092402,8.16168153 18.7620123,7.22155414 18.0558522,6.63301911 Z M4.02628337,16.5502166 C4.02628337,16.5655032 4.01457906,16.5769682 3.99897331,16.5769682 L0.963655031,16.5769682 C0.948049281,16.5769682 0.936344969,16.5655032 0.936344969,16.5502166 L0.936344969,7.82155414 C0.936344969,7.80626752 0.948049281,7.79480255 0.963655031,7.79480255 L4.00287474,7.79480255 C4.01848049,7.79480255 4.0301848,7.80626752 4.0301848,7.82155414 L4.0301848,16.5502166 L4.02628337,16.5502166 Z M18.0324435,8.93365605 L16.9868583,15.323465 C16.9868583,15.3272866 16.9868583,15.3349299 16.9829569,15.3425732 C16.8386037,16.4852484 16.0973306,17.0661401 14.7747433,17.0661401 L9.50390144,17.0661401 L9.2386037,17.0661401 L6.66755647,17.0661401 C5.83655031,17.0661401 5.11478439,16.4584968 4.98603696,15.655949 C4.98213552,15.6291975 4.97433265,15.6024459 4.96652977,15.5756943 L4.96652977,8.25340127 L5.16940452,8.2075414 C5.17720739,8.2075414 5.18110883,8.20371975 5.1889117,8.20371975 C5.22792608,8.19225478 6.15256674,7.93620382 7.08501027,7.28652229 C8.36078029,6.39989809 9.03182752,5.21136306 9.03182752,3.8508535 L9.03182752,0.973146497 C9.437577,0.908178344 10.1320329,0.873783439 10.6353183,1.24066242 C11.0956879,1.5731465 11.3297741,2.20371975 11.3297741,3.11327389 L11.3297741,6.4686879 C11.3297741,6.7209172 11.5404517,6.92728662 11.7979466,6.92728662 L13.5301848,6.92728662 L15.7501027,6.92728662 L16.3665298,6.92728662 C16.7527721,6.92728662 17.1390144,7.0686879 17.4472279,7.32856051 C17.9075975,7.71454777 18.1338809,8.32983439 18.0324435,8.93365605 Z" id="Shape"></path>
                </g>
            </g>
        </g>
    </g>
</svg>
